<svg width="25" height="24" viewBox="0 0 25 24" fill="none" xmlns="http://www.w3.org/2000/svg">
<path d="M12.8782 2.5C12.4182 2.5 11.9482 2.54 11.4782 2.64C8.71825 3.17 6.51825 5.4 5.99825 8.16C5.51825 10.77 6.47825 13.17 8.21825 14.72C8.64825 15.1 8.87825 15.63 8.87825 16.19V18.5C8.87825 19.6 9.77825 20.5 10.8782 20.5H11.1582C11.5082 21.1 12.1382 21.5 12.8782 21.5C13.6182 21.5 14.2582 21.1 14.5982 20.5H14.8782C15.9782 20.5 16.8782 19.6 16.8782 18.5V16.19C16.8782 15.64 17.0982 15.1 17.5182 14.73C18.9682 13.45 19.8782 11.58 19.8782 9.5C19.8782 5.63 16.7482 2.5 12.8782 2.5ZM14.8782 16.5H10.8782V15.5H14.8782V16.5ZM10.8782 18.5V17.5H14.8782V18.5H10.8782ZM16.1882 13.24C16.0982 13.32 16.0282 13.42 15.9482 13.5H9.79825C9.71825 13.41 9.64825 13.31 9.55825 13.23C8.23825 12.05 7.64825 10.29 7.96825 8.53C8.32825 6.59 9.92825 4.98 11.8582 4.6C12.1982 4.53 12.5382 4.5 12.8782 4.5C15.6382 4.5 17.8782 6.74 17.8782 9.5C17.8782 10.93 17.2682 12.29 16.1882 13.24Z" fill="#CC3F02"/>
<path d="M13.3782 10.5H12.3782V13.5H13.3782V10.5Z" fill="#CC3F02"/>
<path d="M11.2577 8.37372L10.5506 9.08082L12.6719 11.2021L13.379 10.495L11.2577 8.37372Z" fill="#CC3F02"/>
<path d="M12.3792 10.5052L13.0863 11.2123L15.2076 9.09098L14.5005 8.38388L12.3792 10.5052Z" fill="#CC3F02"/>
</svg>
