<svg width="31" height="31" viewBox="0 0 31 31" fill="none" xmlns="http://www.w3.org/2000/svg">
<path d="M6.28835 5.03223H11.3205L13.8365 11.3224L10.6915 13.2094C12.0388 15.9413 14.2498 18.1523 16.9816 19.4996L18.8687 16.3545L25.1588 18.8706V23.9027C25.1588 24.57 24.8937 25.21 24.4219 25.6818C23.95 26.1537 23.3101 26.4187 22.6428 26.4187C17.7355 26.1205 13.1071 24.0367 9.63073 20.5603C6.15438 17.084 4.07051 12.4555 3.77229 7.54829C3.77229 6.88099 4.03738 6.24102 4.50923 5.76916C4.98108 5.29731 5.62105 5.03223 6.28835 5.03223" stroke="white" stroke-width="2.26446" stroke-linecap="round" stroke-linejoin="round"/>
<path d="M18.8696 8.8064C19.5369 8.8064 20.1769 9.07148 20.6487 9.54333C21.1206 10.0152 21.3857 10.6552 21.3857 11.3225" stroke="white" stroke-width="2.26446" stroke-linecap="round" stroke-linejoin="round"/>
<path d="M18.8696 3.77417C20.8715 3.77417 22.7914 4.56942 24.207 5.98498C25.6225 7.40054 26.4178 9.32045 26.4178 11.3224" stroke="white" stroke-width="2.26446" stroke-linecap="round" stroke-linejoin="round"/>
</svg>
